<svg width="16" height="16" viewBox="0 0 16 16" fill="none" xmlns="http://www.w3.org/2000/svg">
<path d="M8.00008 0C4.74097 0 2.0896 2.65137 2.0896 5.91047C2.0896 6.9834 2.57078 8.13733 2.59095 8.18601C2.74636 8.55489 3.05301 9.12786 3.27413 9.46371L7.32663 15.604C7.49247 15.8557 7.73793 16 8.00008 16C8.26222 16 8.50768 15.8557 8.67352 15.6043L12.7264 9.46371C12.9478 9.12786 13.2541 8.55489 13.4096 8.18601C13.4297 8.13768 13.9106 6.98375 13.9106 5.91047C13.9106 2.65137 11.2592 0 8.00008 0ZM12.7684 7.91621C12.6297 8.24685 12.3443 8.77983 12.1458 9.08092L8.09291 15.2216C8.01294 15.3429 7.98756 15.3429 7.90759 15.2216L3.85475 9.08092C3.65622 8.77983 3.37078 8.2465 3.23206 7.91586C3.22615 7.90161 2.78495 6.83946 2.78495 5.91047C2.78495 3.03485 5.12446 0.69535 8.00008 0.69535C10.8757 0.69535 13.2152 3.03485 13.2152 5.91047C13.2152 6.84085 12.773 7.90578 12.7684 7.91621Z" fill="#F2542D"/>
<path d="M8.00017 2.78174C6.27466 2.78174 4.87109 4.18565 4.87109 5.91082C4.87109 7.63598 6.27466 9.0399 8.00017 9.0399C9.72569 9.0399 11.1293 7.63598 11.1293 5.91082C11.1293 4.18565 9.72569 2.78174 8.00017 2.78174ZM8.00017 8.34455C6.65849 8.34455 5.56644 7.25284 5.56644 5.91082C5.56644 4.56879 6.65849 3.47709 8.00017 3.47709C9.34185 3.47709 10.4339 4.56879 10.4339 5.91082C10.4339 7.25284 9.34185 8.34455 8.00017 8.34455Z" fill="#F2542D"/>
</svg>
