<svg width="20" height="20" viewBox="0 0 20 20" fill="none" xmlns="http://www.w3.org/2000/svg">
<g clip-path="url(#clip0_368_122)">
<path d="M10.0002 5.25488L2.86725 11.1352C2.86725 11.1435 2.86516 11.1557 2.86099 11.1723C2.85691 11.1889 2.85474 11.2009 2.85474 11.2094V17.1638C2.85474 17.3788 2.93334 17.5651 3.0905 17.722C3.24761 17.879 3.43367 17.958 3.6487 17.958H8.41214V13.1943H11.5882V17.9582H16.3516C16.5666 17.9582 16.7529 17.8793 16.9098 17.722C17.067 17.5653 17.1458 17.3788 17.1458 17.1638V11.2094C17.1458 11.1763 17.1413 11.1514 17.1333 11.1352L10.0002 5.25488Z" fill="black"/>
<path d="M19.862 9.7954L17.1454 7.53765V2.47628C17.1454 2.36057 17.1082 2.26541 17.0336 2.19094C16.9596 2.11655 16.8644 2.07936 16.7484 2.07936H14.3667C14.2508 2.07936 14.1557 2.11655 14.0812 2.19094C14.0069 2.26541 13.9697 2.36061 13.9697 2.47628V4.89527L10.9429 2.36452C10.6785 2.14949 10.3642 2.04199 10.0003 2.04199C9.63639 2.04199 9.32212 2.14949 9.05751 2.36452L0.137848 9.7954C0.0551624 9.86145 0.00984395 9.95035 0.00141463 10.062C-0.00697125 10.1736 0.0219231 10.2711 0.0881845 10.3537L0.857295 11.2717C0.923556 11.3461 1.01028 11.3916 1.11782 11.4082C1.21711 11.4166 1.31639 11.3875 1.41567 11.3214L10 4.16336L18.5845 11.3214C18.6508 11.3791 18.7375 11.4079 18.845 11.4079H18.8823C18.9896 11.3915 19.0762 11.3457 19.1428 11.2715L19.912 10.3537C19.9781 10.2708 20.0071 10.1736 19.9985 10.0618C19.99 9.95048 19.9445 9.86158 19.862 9.7954Z" fill="black"/>
</g>
<defs>
<clipPath id="clip0_368_122">
<rect width="20" height="20" fill="white"/>
</clipPath>
</defs>
</svg>
