<svg width="10" height="10" viewBox="0 0 10 10" fill="none" xmlns="http://www.w3.org/2000/svg">
<g clip-path="url(#clip0_1_405)">
<path d="M7.71368 4.28974C7.66346 4.23916 7.60785 4.19647 7.5501 4.15935L3.67418 0.28361C3.2959 -0.094314 2.68283 -0.0944934 2.30437 0.283789C1.92609 0.661892 1.92609 1.27514 2.30437 1.65361L5.64254 4.99142L2.28751 8.34682C1.90905 8.72474 1.90905 9.33817 2.28751 9.71664C2.47674 9.90551 2.72444 10 2.97215 10C3.21985 10 3.46809 9.90551 3.65679 9.71628L7.5501 5.8235C7.60785 5.78637 7.66328 5.74386 7.71368 5.6931C7.90739 5.49939 8.00031 5.24505 7.996 4.99142C8.00048 4.73762 7.90739 4.48292 7.71368 4.28974Z" fill="#12958B"/>
</g>
<defs>
<clipPath id="clip0_1_405">
<rect width="10" height="10" fill="white"/>
</clipPath>
</defs>
</svg>
