<svg width="20" height="15" viewBox="0 0 20 15" fill="none" xmlns="http://www.w3.org/2000/svg">
<path d="M19.5879 2.19901C19.3574 1.34223 18.6819 0.666881 17.8252 0.436169C16.2602 0.00785637 9.99981 0.00785637 9.99981 0.00785637C9.99981 0.00785637 3.73961 0.00785637 2.17452 0.419842C1.33438 0.650401 0.642395 1.34238 0.411836 2.19901C2.86102e-06 3.76394 2.86102e-06 7.00947 2.86102e-06 7.00947C2.86102e-06 7.00947 2.86102e-06 10.2713 0.411836 11.8199C0.642548 12.6766 1.3179 13.3521 2.17468 13.5828C3.75609 14.0111 9.99996 14.0111 9.99996 14.0111C9.99996 14.0111 16.2602 14.0111 17.8252 13.5991C18.682 13.3685 19.3574 12.693 19.5881 11.8364C19.9999 10.2713 19.9999 7.02595 19.9999 7.02595C19.9999 7.02595 20.0164 3.76394 19.5879 2.19901Z" fill="white"/>
<path d="M8.00656 10.0078L13.2124 7.00949L8.00656 4.01114V10.0078Z" fill="#FF0000"/>
</svg>
